<svg width="31" height="31" viewBox="0 0 31 31" fill="none" xmlns="http://www.w3.org/2000/svg">
<path d="M15.396 0.916504C7.12451 0.916504 0.395996 7.64502 0.395996 15.9165C0.395996 24.188 7.12451 30.9165 15.396 30.9165C23.6675 30.9165 30.396 24.188 30.396 15.9165C30.396 7.64502 23.6675 0.916504 15.396 0.916504ZM15.396 3.4165C22.3149 3.4165 27.896 8.99756 27.896 15.9165C27.896 22.8354 22.3149 28.4165 15.396 28.4165C8.47705 28.4165 2.896 22.8354 2.896 15.9165C2.896 8.99756 8.47705 3.4165 15.396 3.4165ZM8.521 9.6665C7.48584 9.6665 6.646 10.5063 6.646 11.5415C6.646 11.6587 6.65576 11.771 6.68506 11.8931C6.73877 12.1909 6.86084 12.4448 7.03662 12.6743C7.97412 14.2905 10.396 15.9165 10.396 15.9165C10.396 15.9165 14.146 13.5337 14.146 11.5415C14.146 10.5063 13.3062 9.6665 12.271 9.6665C11.2358 9.6665 10.396 10.5063 10.396 11.5415C10.396 10.5063 9.55615 9.6665 8.521 9.6665ZM18.521 9.6665C17.4858 9.6665 16.646 10.5063 16.646 11.5415C16.646 11.6587 16.6558 11.771 16.6851 11.8931C16.7388 12.1909 16.8608 12.4448 17.0366 12.6743C17.9741 14.2905 20.396 15.9165 20.396 15.9165C20.396 15.9165 22.8813 14.3052 23.7944 12.6353C23.9946 12.2642 24.146 11.9028 24.146 11.5415C24.146 10.5063 23.3062 9.6665 22.271 9.6665C21.2358 9.6665 20.396 10.5063 20.396 11.5415C20.396 10.5063 19.5562 9.6665 18.521 9.6665ZM8.91162 19.6665L6.76318 20.9165C8.4917 23.8999 11.7046 25.9165 15.396 25.9165C19.0874 25.9165 22.3003 23.8999 24.0288 20.9165L21.8804 19.6665C20.5815 21.9077 18.1792 23.4165 15.396 23.4165C12.6128 23.4165 10.2105 21.9077 8.91162 19.6665Z" fill="#E0CFBA"/>
</svg>
