<svg width="31" height="31" viewBox="0 0 31 31" fill="none" xmlns="http://www.w3.org/2000/svg">
<path d="M15.396 0.916504C7.12451 0.916504 0.395996 7.64502 0.395996 15.9165C0.395996 24.188 7.12451 30.9165 15.396 30.9165C23.6675 30.9165 30.396 24.188 30.396 15.9165C30.396 7.64502 23.6675 0.916504 15.396 0.916504ZM15.396 3.4165C22.3149 3.4165 27.896 8.99756 27.896 15.9165C27.896 22.8354 22.3149 28.4165 15.396 28.4165C8.47705 28.4165 2.896 22.8354 2.896 15.9165C2.896 8.99756 8.47705 3.4165 15.396 3.4165ZM9.771 10.9165C8.73584 10.9165 7.896 11.7563 7.896 12.7915C7.896 13.8267 8.73584 14.6665 9.771 14.6665C10.8062 14.6665 11.646 13.8267 11.646 12.7915C11.646 11.7563 10.8062 10.9165 9.771 10.9165ZM21.021 10.9165C19.9858 10.9165 19.146 11.7563 19.146 12.7915C19.146 13.8267 19.9858 14.6665 21.021 14.6665C22.0562 14.6665 22.896 13.8267 22.896 12.7915C22.896 11.7563 22.0562 10.9165 21.021 10.9165ZM8.91162 19.6665L6.76318 20.9165C8.4917 23.8999 11.7046 25.9165 15.396 25.9165C19.0874 25.9165 22.3003 23.8999 24.0288 20.9165L21.8804 19.6665C20.5815 21.9077 18.1792 23.4165 15.396 23.4165C12.6128 23.4165 10.2105 21.9077 8.91162 19.6665Z" fill="#E0CFBA"/>
</svg>
