<svg width="31" height="31" viewBox="0 0 31 31" fill="none" xmlns="http://www.w3.org/2000/svg">
<path d="M15.396 0.916504C7.12666 0.916504 0.395996 7.64717 0.395996 15.9165C0.395996 24.1858 7.12666 30.9165 15.396 30.9165C23.6653 30.9165 30.396 24.1858 30.396 15.9165C30.396 7.64717 23.6653 0.916504 15.396 0.916504ZM15.396 3.4165C22.3142 3.4165 27.896 8.99834 27.896 15.9165C27.896 22.8347 22.3142 28.4165 15.396 28.4165C8.47783 28.4165 2.896 22.8347 2.896 15.9165C2.896 8.99834 8.47783 3.4165 15.396 3.4165ZM7.40527 12.4229L5.88672 14.4102C5.88672 14.4102 7.78944 15.9165 10.396 15.9165C13.0026 15.9165 14.9053 14.4102 14.9053 14.4102L13.3867 12.4229C13.3867 12.4229 12.0169 13.4165 10.396 13.4165C8.77505 13.4165 7.40527 12.4229 7.40527 12.4229ZM17.4053 12.4229L15.8867 14.4102C15.8867 14.4102 17.7894 15.9165 20.396 15.9165C23.0026 15.9165 24.9053 14.4102 24.9053 14.4102L23.3867 12.4229C23.3867 12.4229 22.0169 13.4165 20.396 13.4165C18.7751 13.4165 17.4053 12.4229 17.4053 12.4229ZM15.396 19.6665C12.7894 19.6665 10.8867 21.1729 10.8867 21.1729L12.4053 23.1602C12.4053 23.1602 13.7751 22.1665 15.396 22.1665C17.0169 22.1665 18.3867 23.1602 18.3867 23.1602L19.9053 21.1729C19.9053 21.1729 18.0026 19.6665 15.396 19.6665Z" fill="#E0CFBA"/>
</svg>
