<svg width="54" height="33" viewBox="0 0 54 33" fill="none" xmlns="http://www.w3.org/2000/svg">
<path fill-rule="evenodd" clip-rule="evenodd" d="M26.9712 28.5288C24.2093 30.9122 20.6267 32.351 16.7119 32.351C7.97675 32.351 0.895508 25.1875 0.895508 16.351C0.895508 7.5144 7.97675 0.350952 16.7119 0.350952C20.6267 0.350952 24.2093 1.78974 26.9712 4.17311C29.733 1.78974 33.3156 0.350952 37.2304 0.350952C45.9656 0.350952 53.0468 7.5144 53.0468 16.351C53.0468 25.1875 45.9656 32.351 37.2304 32.351C33.3156 32.351 29.733 30.9122 26.9712 28.5288Z" fill="#ED0006"/>
<path fill-rule="evenodd" clip-rule="evenodd" d="M26.9712 28.5289C30.3719 25.5942 32.5283 21.2274 32.5283 16.3511C32.5283 11.4748 30.3719 7.10794 26.9712 4.17325C29.7331 1.78988 33.3157 0.351086 37.2304 0.351086C45.9656 0.351086 53.0468 7.51453 53.0468 16.3511C53.0468 25.1876 45.9656 32.3511 37.2304 32.3511C33.3157 32.3511 29.7331 30.9123 26.9712 28.5289Z" fill="#F9A000"/>
<path fill-rule="evenodd" clip-rule="evenodd" d="M26.9711 28.5288C30.3718 25.5941 32.5282 21.2273 32.5282 16.351C32.5282 11.4747 30.3718 7.10792 26.9711 4.17323C23.5704 7.10792 21.4141 11.4747 21.4141 16.351C21.4141 21.2273 23.5704 25.5941 26.9711 28.5288Z" fill="#FF5E00"/>
</svg>
