<svg width="174" height="126" viewBox="0 0 174 126" fill="none" xmlns="http://www.w3.org/2000/svg">
<g opacity="0.5">
<path d="M17.7291 124.229L44.9819 3.42142H26.1083V2.20113H75.0821L47.4225 124.229H17.7291ZM-0.00561523 124.229V123.009H65.5639V124.229H-0.00561523Z" fill="#343434"/>
<path d="M108.576 125.856C100.82 125.856 94.1494 124.039 88.5632 120.405C82.9771 116.772 78.6654 112.026 75.6283 106.169C72.5912 100.257 71.0726 93.8846 71.0726 87.051C71.0726 77.6685 72.2386 68.6926 74.5707 60.1236C76.957 51.5003 80.2111 43.5821 84.3329 36.3689C88.509 29.1015 93.3359 22.8102 98.8135 17.4953C104.345 12.1261 110.284 7.97711 116.63 5.04845C122.975 2.06555 129.51 0.574097 136.235 0.574097C143.937 0.574097 150.58 2.39096 156.167 6.02467C161.807 9.60415 166.119 14.3497 169.101 20.2612C172.139 26.1728 173.657 32.5453 173.657 39.3789C173.657 48.7615 172.491 57.7644 170.159 66.3877C167.827 74.9567 164.573 82.875 160.397 90.1424C156.221 97.3556 151.367 103.647 145.835 109.016C140.357 114.331 134.446 118.48 128.1 121.463C121.755 124.391 115.247 125.856 108.576 125.856ZM108.576 124.717C111.45 124.717 114.243 123.28 116.955 120.405C119.667 117.531 122.27 113.653 124.765 108.772C127.26 103.837 129.565 98.2776 131.68 92.0948C133.849 85.9121 135.801 79.4853 137.537 72.8145C139.273 66.1436 140.737 59.5812 141.93 53.1273C143.177 46.6734 144.126 40.7348 144.777 35.3113C145.482 29.8336 145.835 25.305 145.835 21.7256C145.835 18.8511 145.699 16.2208 145.428 13.8344C145.211 11.3939 144.75 9.27874 144.045 7.489C143.394 5.64502 142.418 4.23493 141.116 3.25871C139.869 2.22825 138.242 1.71303 136.235 1.71303C133.307 1.71303 130.486 3.12312 127.775 5.94331C125.063 8.70927 122.46 12.5057 119.965 17.3326C117.47 22.1052 115.138 27.5286 112.969 33.6029C110.854 39.6772 108.928 46.0226 107.193 52.6392C105.457 59.2558 103.966 65.8182 102.718 72.3264C101.525 78.7803 100.576 84.8003 99.8711 90.3865C99.2203 95.9726 98.8949 100.745 98.8949 104.704C98.8949 107.525 99.0034 110.155 99.2203 112.595C99.4915 115.036 99.9525 117.178 100.603 119.022C101.308 120.812 102.285 122.222 103.532 123.253C104.834 124.229 106.515 124.717 108.576 124.717Z" fill="#343434"/>
</g>
</svg>
